<mxfile host="app.diagrams.net" agent="Mozilla/5.0 (Windows NT 10.0; Win64; x64) AppleWebKit/537.36 (KHTML, like Gecko) Chrome/128.0.0.0 Safari/537.36" version="24.7.10">
  <diagram name="PÃ¡gina-1" id="9gdlKblt7namgMsKa1S9">
    <mxGraphModel grid="0" page="0" gridSize="10" guides="1" tooltips="1" connect="1" arrows="1" fold="1" pageScale="1" pageWidth="827" pageHeight="1169" math="0" shadow="0">
      <root>
        <mxCell id="0" />
        <mxCell id="1" parent="0" />
        <mxCell id="ZDwu9SUeRuNG5hqnm1El-1" value="USUARIO" style="shape=umlActor;verticalLabelPosition=bottom;verticalAlign=top;html=1;outlineConnect=0;" vertex="1" parent="1">
          <mxGeometry x="-306" y="-456.5" width="59" height="101" as="geometry" />
        </mxCell>
        <mxCell id="ZDwu9SUeRuNG5hqnm1El-2" style="edgeStyle=none;curved=1;rounded=0;orthogonalLoop=1;jettySize=auto;html=1;exitX=0.5;exitY=0.5;exitDx=0;exitDy=0;exitPerimeter=0;fontSize=12;startSize=8;endSize=8;" edge="1" parent="1" source="ZDwu9SUeRuNG5hqnm1El-1">
          <mxGeometry relative="1" as="geometry">
            <mxPoint x="-217" y="-405.5" as="targetPoint" />
          </mxGeometry>
        </mxCell>
        <mxCell id="ZDwu9SUeRuNG5hqnm1El-3" value="Historial de partidas" style="ellipse;whiteSpace=wrap;html=1;" vertex="1" parent="1">
          <mxGeometry x="-215" y="-445.5" width="120" height="80" as="geometry" />
        </mxCell>
        <mxCell id="ZDwu9SUeRuNG5hqnm1El-5" value="Historial de partidas" style="ellipse;whiteSpace=wrap;html=1;" vertex="1" parent="1">
          <mxGeometry x="-14" y="-446" width="120" height="80" as="geometry" />
        </mxCell>
        <mxCell id="ZDwu9SUeRuNG5hqnm1El-7" value="Obtener datos del histoial" style="ellipse;whiteSpace=wrap;html=1;" vertex="1" parent="1">
          <mxGeometry x="-14" y="-309" width="120" height="80" as="geometry" />
        </mxCell>
        <mxCell id="ZDwu9SUeRuNG5hqnm1El-9" value="SISTEMA" style="shape=umlActor;verticalLabelPosition=bottom;verticalAlign=top;html=1;outlineConnect=0;" vertex="1" parent="1">
          <mxGeometry x="-283" y="-210" width="65" height="98" as="geometry" />
        </mxCell>
        <mxCell id="ZDwu9SUeRuNG5hqnm1El-10" value="" style="endArrow=classic;html=1;rounded=0;fontSize=12;startSize=8;endSize=8;curved=1;exitX=0.5;exitY=0.5;exitDx=0;exitDy=0;exitPerimeter=0;entryX=0;entryY=0.5;entryDx=0;entryDy=0;" edge="1" parent="1" source="ZDwu9SUeRuNG5hqnm1El-9" target="ZDwu9SUeRuNG5hqnm1El-12">
          <mxGeometry width="50" height="50" relative="1" as="geometry">
            <mxPoint x="-188" y="-112" as="sourcePoint" />
            <mxPoint x="-138" y="-162" as="targetPoint" />
          </mxGeometry>
        </mxCell>
        <mxCell id="ZDwu9SUeRuNG5hqnm1El-11" value="&amp;lt;&amp;lt;Include&amp;gt;&amp;gt;" style="endArrow=open;endSize=12;dashed=1;html=1;rounded=0;fontSize=12;curved=1;exitX=0.5;exitY=0;exitDx=0;exitDy=0;entryX=0.5;entryY=1;entryDx=0;entryDy=0;" edge="1" parent="1" source="ZDwu9SUeRuNG5hqnm1El-12" target="ZDwu9SUeRuNG5hqnm1El-7">
          <mxGeometry width="160" relative="1" as="geometry">
            <mxPoint x="-108" y="-412" as="sourcePoint" />
            <mxPoint x="-18" y="-429" as="targetPoint" />
          </mxGeometry>
        </mxCell>
        <mxCell id="ZDwu9SUeRuNG5hqnm1El-12" value="Solicitar datos" style="ellipse;whiteSpace=wrap;html=1;" vertex="1" parent="1">
          <mxGeometry x="-14" y="-197" width="120" height="80" as="geometry" />
        </mxCell>
        <mxCell id="ZDwu9SUeRuNG5hqnm1El-13" value="&amp;lt;&amp;lt;Include&amp;gt;&amp;gt;" style="endArrow=open;endSize=12;dashed=1;html=1;rounded=0;fontSize=12;curved=1;entryX=0.5;entryY=1;entryDx=0;entryDy=0;" edge="1" parent="1" target="ZDwu9SUeRuNG5hqnm1El-5">
          <mxGeometry width="160" relative="1" as="geometry">
            <mxPoint x="46" y="-302" as="sourcePoint" />
            <mxPoint x="56" y="-219" as="targetPoint" />
          </mxGeometry>
        </mxCell>
        <mxCell id="ZDwu9SUeRuNG5hqnm1El-14" value="&amp;lt;&amp;lt;Include&amp;gt;&amp;gt;" style="endArrow=open;endSize=12;dashed=1;html=1;rounded=0;fontSize=12;curved=1;entryX=1;entryY=0.5;entryDx=0;entryDy=0;" edge="1" parent="1" source="ZDwu9SUeRuNG5hqnm1El-5" target="ZDwu9SUeRuNG5hqnm1El-3">
          <mxGeometry width="160" relative="1" as="geometry">
            <mxPoint x="56" y="-292" as="sourcePoint" />
            <mxPoint x="56" y="-356" as="targetPoint" />
          </mxGeometry>
        </mxCell>
      </root>
    </mxGraphModel>
  </diagram>
</mxfile>
